<?xml version="1.0"?>
<svg xmlns="http://www.w3.org/2000/svg" xml:space="preserve" style="enable-background:new 0 0 512 138.2" viewBox="0 0 512 138.2">
  <path d="M161.9 112.1c-2.8-1.4-5-3.6-6.4-6.5-1.4-2.9-2.1-6.5-2.1-10.9V62h-13.8V45.4h13.8V30.8l20.5-9.4v24h18.6V62h-18.6v33.1c0 .6.1 1 .3 1.4.2.4.4.6.8.8s.8.3 1.4.3h16v16.6h-19.7c-4.3.1-7.9-.7-10.8-2.1zm37.9-66.7h20.3v20.4c1.1-5.9 3.1-10.4 5.9-13.8 2.8-3.3 6-5.5 9.6-6.5 3.6-1 7.4-1 11.2 0v18.6c-1.4-.4-3.1-.7-5.2-.7s-4.3.2-6.6.8c-2.3.5-4.5 1.4-6.4 2.6-1.7 1-3.2 2.3-4.4 3.8-1.2 1.5-2.2 3.3-2.9 5.4-.7 2.1-1.1 4.5-1.1 7.2v30.9h-20.3l-.1-68.7zm57.7-8.8c-1.9-1.1-3.4-2.6-4.5-4.5s-1.6-4-1.6-6.4c0-2 .4-3.8 1.1-5.4.7-1.6 1.7-3 3-4.2 1.3-1.2 2.8-2 4.5-2.5.6-.2 1.2-.3 1.9-.4s1.3-.1 2-.1c2.4 0 4.5.5 6.4 1.6 1.9 1.1 3.4 2.6 4.4 4.5 1.1 1.9 1.6 4.1 1.6 6.5 0 2.2-.5 4.3-1.4 6.1-1 2-2.5 3.5-4.4 4.7-1.9 1.2-4.1 1.7-6.6 1.7-2.4.1-4.5-.5-6.4-1.6zm-3.9 8.8h20.5v68.8h-20.5V45.4zm97.7 14.9c-2.5-5.4-6-9.5-10.4-12.3-4.4-2.8-9.5-4.2-15.1-4.2-4.2 0-7.9.8-11.1 2.4-3.2 1.6-5.8 3.9-7.8 6.9-2.1 3-3.6 6.6-4.5 10.9V45.4H282v92.8h20.4l.1-41.7c1 4.1 2.5 7.5 4.5 10.4s4.7 5.1 7.8 6.6c3.1 1.5 6.8 2.3 11 2.3 5.8 0 10.9-1.4 15.3-4.3 4.4-2.8 7.9-7 10.3-12.4 2.5-5.4 3.7-11.9 3.7-19.4s-1.3-14-3.8-19.4zm-18.8 30c-1.3 3-3.2 5.4-5.7 7-2.4 1.6-5.3 2.4-8.5 2.4s-6.1-.8-8.5-2.4c-2.4-1.6-4.3-3.9-5.6-6.9s-1.9-6.6-1.9-10.6c0-4.1.6-7.6 1.9-10.6 1.3-3 3.1-5.3 5.5-6.9 2.4-1.6 5.2-2.4 8.5-2.4.7 0 1.4.1 2.4.2 2.8.3 5.3 1.4 7.4 3.1 2.1 1.7 3.7 4 4.8 6.8 1.1 2.8 1.7 6.1 1.7 9.8 0 3.9-.6 7.5-2 10.5zm28.9 24V19.8h20.5v94.5h-20.5zm94.2-50.5c-2.1-6.2-5.9-11-11.4-14.6s-12.2-5.4-20.4-5.4c-7.5 0-13.9 1.5-19.3 4.6-5.4 3.1-9.5 7.3-12.3 12.7-2.8 5.4-4.2 11.7-4.2 18.9s1.4 13.5 4.2 18.9c2.8 5.4 6.9 9.6 12.3 12.5 5.4 2.9 11.9 4.4 19.3 4.4 2.7 0 5.2-.2 7.6-.6 2.4-.4 4.7-1 6.8-1.7 3.1-1.1 5.9-2.6 8.3-4.5 2.4-1.9 4.5-4 6.2-6.6 1.7-2.5 3-5.3 4-8.2L439.6 89c-.1.5-.2 1-.4 1.4l-.6 1.2c-.8 1.8-1.9 3.4-3.1 4.6-1.3 1.2-2.8 2.2-4.5 2.8-1.7.7-3.8 1-6 1-4.2 0-7.5-.8-10.1-2.4-2.5-1.6-4.3-3.8-5.5-6.8-.7-1.9-1.2-4.1-1.5-6.6H457c1.2-7.4.7-14.2-1.4-20.4zm-47.2 8.1c.3-1.4.6-2.6 1-3.8 1.1-3.2 2.9-5.6 5.2-7.2 2.4-1.6 5.4-2.5 9.1-2.5 2.4 0 4.5.3 6.4 1 1.6.7 2.9 1.6 4.1 2.7 1.1 1.2 2 2.5 2.7 4.2.7 1.6 1.1 3.5 1.3 5.6h-29.8zm67.7 66.3v-15.3h10.8c.6 0 1-.1 1.4-.3.4-.2.6-.4.8-.8.2-.4.3-.8.3-1.4v-75h20.5v74.9c0 4.1-.7 7.4-2.1 10-1.4 2.6-3.5 4.6-6.4 5.9-2.8 1.3-6.5 1.9-10.9 1.9l-14.4.1zm17-101.6c-1.9-1.1-3.4-2.6-4.5-4.5s-1.6-4-1.6-6.4.5-4.6 1.6-6.5 2.6-3.4 4.5-4.5 4.1-1.6 6.5-1.6c2.4 0 4.5.5 6.4 1.6s3.4 2.6 4.4 4.5c1.1 1.9 1.6 4.1 1.6 6.5 0 2-.4 3.8-1.1 5.5-.7 1.7-1.8 3.1-3.2 4.2-1.1.9-2.3 1.6-3.7 2.1-1.4.5-2.8.8-4.4.8-2.4 0-4.6-.6-6.5-1.7zM72 85.8c-1.1 0-32.3 2.1-44.9-10.6-.1-.1-.2 0-.2.1l7.2 35c3.8 17.3 41 15.6 41 15.6.3 0 .6-.3.6-.6l-3.1-39c-.1-.3-.3-.5-.6-.5zM21.6 49c.1-1.2.4-2.2.7-3.1 0-.1 0-.1-.1-.2-.7-.1-4.2-.6-6-.9-4.5-.7-9-1.3-13.5-2.1-1.4-.2-2.7.8-2.8 2.2-.1 1.3.9 2.5 2.3 2.6 6.1.4 17.8 1.5 19.2 1.6.2 0 .2-.1.2-.1zm30.3-21.7c0 .1.1.1.2.1l3-.7c.1 0 .1-.1.1-.1-6.4-10-15.4-24.3-15.8-25.2-.6-1.2-2.2-1.9-3.5-1-1.3.9-1.3 2.6-.4 3.6.6.7 9.7 13.7 16.4 23.3zm84.6-13.9c-.9-1.3-2.6-1.3-3.7-.4-1.1 1-31.8 22.8-33.8 24.1-2.2 1.5-2.8 2.1-4.1 2.4-1.4.4-1.8.5-2.6 1-1.7 1.2-1.3 2.7-.8 3.4s1.7 1.7 3.4.5c.8-.6 1-.9 1.9-2.1.8-1.1 1.6-1.4 3.8-2.9 1.9-1.3 33.5-21.8 34.9-22.5 1.2-.6 1.9-2.2 1-3.5zm-13.7 39.5c-4.7 9.4-22.5 18.4-44.4 20.8-.3 0-.5.3-.5.6l4.1 50.6c0 .3.3.5.6.5 21.6-2.5 37.7-12.7 38.1-20.9.5-8.2 2.6-51.5 2.6-51.5 0-.2-.4-.4-.5-.1zm-6.4-20.7h-.1c-6.4 3.9.1 5 2.6 5.4.2 0 .2.3 0 .4-11 3.8-6.9 8.7-5.4 10.1.1.1 0 .3-.2.3-15.1-1.7-18.4 5.1-19 7.2-.1.2-.3.2-.4 0C89 47.8 76 50 72.2 51c-.3.1-.4-.2-.2-.3 9-6.3 1.9-11.3-.8-12.7-.2-.1-.1-.4.2-.4 15.8.1 16.7-6.8 16.7-8.7 0-.2.2-.3.4-.1 9.7 6.7 16.9.5 18.3-.9.1-.1 0-.2 0-.2-9.5-3.1-22.2-4.5-35.9-3.4-4.7.4-9.2 1-13.5 1.9l-2 .4c-.1 0-.1.1 0 .1 2.3 3.7 4.1 6.4 4.5 6.9 1.5 2.2 1.8 2.9 2.9 3.8 1.1.9 1.5 1.1 2.1 1.9 1.2 1.7.2 3-.5 3.5-.7.4-2.2.9-3.4-.9-.6-.8-.6-1.3-1-2.7-.4-1.3-.9-1.9-2.4-4.1-.4-.6-4.6-6.6-5.3-7.7-.1-.1-.2-.1-.3-.1C37 31.2 25.9 38 22.7 45.4c0 .1 0 .2.1.2 2 .3 22.8 3.1 24 3.2 2.7.3 3.6.6 5 .3 1.5-.3 1.9-.5 3-.3 2.2.3 2.5 1.9 2.4 2.8-.1.8-.8 2.4-3 2.1-1-.1-1.4-.5-2.8-1.1-1.3-.6-2.2-.6-4.9-.9-1.1-.1-22.6-2.4-24.5-2.6-.1 0-.1 0-.1.1v1.4c1 12.3 24.6 20.5 52.8 18.2 28.2-2.3 49.5-13.6 49.5-27.5-.3-5.1-7-8.6-7.8-9.1z" style="fill:#ef4134"/>
</svg>
